<svg xmlns="http://www.w3.org/2000/svg" viewBox="0 0 181.55 161.06"><defs><style>.cls-1{fill:#fa538b;}.cls-2{fill:#ddb567;}.cls-3{fill:#01152f;}.cls-4{font-size:25.21px;fill:#fff;font-family:Gilroy-Heavy, Gilroy Heavy;font-weight:800;letter-spacing:0.02em;}.cls-5{letter-spacing:0.02em;}</style></defs><g id="Layer_2" data-name="Layer 2"><g id="Layer_1-2" data-name="Layer 1"><path class="cls-1" d="M35.88,161.06H94s-2.71-23-11-36.93c22.08,3.87,50.71-7.73,50.49-13.35-.22-5.81-36.69,3.25-59-5.65a71,71,0,0,0,14.79-4.69v0c2.68-1,4.56.75,6.39,0s.87-4.48.87-4.48,4.45,1.3,6.62-.52.36-7,.36-7,3.16-.12,3.67-2.06-1.76-4.31-1.76-4.31,3.62-2.18,3.25-6-7.16-8-9-12a16.29,16.29,0,0,1-1.66-8.84s0,0,0,0a44.82,44.82,0,0,0-1.47-13.86c2,.09,4.15-.18,4.23-1.76.16-3-5.78-6.12-5.78-6.12s4.84.8,4.92-2.27-10.18-7.32-10.18-7.32,3.57-.5,3.46-3.31S80,15.49,80,15.49s7-4.26,4.92-7.66-14.32,3.63-14.32,3.63S61.71-1,58,.06c-2.79.77-.52,5.67.83,8.13a45.31,45.31,0,0,0-33.58,9h0c-6.85,2.27-3.26-4.69-7.74-4.92s-2.8,13.28-2.8,13.28C12.1,25.1,11.07,22.07,9,23.71s3.16,6.88,3.16,6.88S1.38,32.12.12,35.72s7.93,6.52,8,10.51v0a45.25,45.25,0,0,0,.1,14.22h0c1.09,7.79-5.74,14.47-5.53,17.72s5.5.28,5.5.28S2.77,86.33,3.61,89.06,9.13,88,9.13,88s-3.85,7.82-2,9.51c1.16,1,2.75-.75,3.81-2.28,1.77,4.75,4.64,8.59,9.21,10.12,2.78.92,11.41,2.11,11.41,2.11S32.2,138.2,35.88,161.06Z"/><path class="cls-2" d="M6.2,58.61l-.34-9.27,40.67-1.6a2.22,2.22,0,0,1,2.23,1.65c.56,2.1,2.1,5.35,6.34,5.19s6.14-3.72,6.82-5.85a2.21,2.21,0,0,1,2.17-1.52l36,.85-.51,7-3.93.16-1.35,9.54a16.35,16.35,0,0,1-15.6,14.06L74.5,79A16.37,16.37,0,0,1,58.21,67.26l-.14-.49a4.39,4.39,0,0,0-4.38-3.15h0a4.39,4.39,0,0,0-4.1,3.28l-.21.8A16.36,16.36,0,0,1,34.65,79.9l-3.27.22A16.37,16.37,0,0,1,14.24,67l-2-9.68Z"/><path class="cls-3" d="M45.53,51.5,15.15,52.61l.08.6,2.65,13.1A12.6,12.6,0,0,0,30.73,76.43l.4,0,3.27-.22a12.6,12.6,0,0,0,11.33-9.25C47.54,60.37,45.53,51.5,45.53,51.5Z"/><path class="cls-3" d="M62.94,52.67c-.46,1.16-2.46,8.54-1.55,12.36.09.22.17.46.24.69l.14.49a12.64,12.64,0,0,0,12.6,9.07l4.16-.15A12.64,12.64,0,0,0,90.59,64.26l1.78-12.62Z"/><path class="cls-1" d="M35.05,105.88s-25.82,11.73-25.82,24S35.08,152.05,34.14,145,23.2,133.18,23.2,129.87s14-7.3,14-7.3Z"/><rect class="cls-2" x="130.23" y="62.34" width="6.42" height="69.41" transform="translate(12.84 -15.56) rotate(7.01)"/><rect class="cls-3" x="97.79" y="31.39" width="80.72" height="54.81" transform="translate(8.21 -16.42) rotate(7.01)"/><text class="cls-4" transform="matrix(0.99, 0.12, -0.12, 0.99, 105.82, 50.82)">Need<tspan class="cls-5"><tspan x="0" y="21.65">Help?</tspan></tspan></text></g></g></svg>