<svg xmlns="http://www.w3.org/2000/svg" xmlns:xlink="http://www.w3.org/1999/xlink" viewBox="0 0 103.94 76.11"><defs><style>.cls-1,.cls-6{fill:none;}.cls-2{clip-path:url(#clip-path);}.cls-3{fill:#d72f73;}.cls-4{fill:#ddb567;}.cls-5{fill:#01152f;}.cls-6{stroke:#d72f73;stroke-miterlimit:10;}</style><clipPath id="clip-path" transform="translate(0 -1.23)"><rect class="cls-1" x="29.28" width="45.38" height="39.99"/></clipPath></defs><g id="Layer_2" data-name="Layer 2"><g id="Layer_1-2" data-name="Layer 1"><g class="cls-2"><path class="cls-3" d="M66.29,69.59a29.69,29.69,0,0,0-4.12-4,12,12,0,0,0,.62-2.26,10.91,10.91,0,0,0,.16-1.5,18.65,18.65,0,0,0-1.44-10.84c8.75.61,9.35,6.08,9.53,3.86s-4.45-8.89-12.68-11.39a27.9,27.9,0,0,0,6-1.15h0c1.1-.25,1.76.52,2.51.32s.56-1.73.56-1.73,1.69.73,2.63.11.48-2.76.48-2.76,1.25.11,1.54-.64-.49-1.78-.49-1.78a2.73,2.73,0,0,0,1.56-2.21c0-1.51-2.44-3.49-3-5.14A6.54,6.54,0,0,1,70,24.87h0A18,18,0,0,0,70,19.33c.79.12,1.65.12,1.75-.5.2-1.16-2-2.68-2-2.68s1.87.54,2-.67-3.67-3.36-3.67-3.36,1.43,0,1.52-1.14-4.92-2.63-4.92-2.63,3-1.35,2.3-2.78-5.82.75-5.82.75S58.35,1,56.82,1.24c-1.13.17-.47,2.2,0,3.24a18,18,0,0,0-7.11-.37,17.74,17.74,0,0,0-6.55,2.33h0c-2.81.57-1.06-2-2.82-2.31s-1.73,5.11-1.73,5.11c-1-.29-1.25-1.54-2.13-1s.92,2.86.92,2.86-4.33.1-5,1.46,2.82,2.94,2.63,4.51h0a18,18,0,0,0-.63,5.6h0c.06,3.12-2.94,5.43-3,6.72s2.15.37,2.15.37-2.49,2.86-2.29,4,2.23-.17,2.23-.17-1.89,2.9-1.22,3.66c.41.47,1.12-.16,1.6-.72A6.17,6.17,0,0,0,37,40.94a21.68,21.68,0,0,0,4.39,1.37c-8.23,1.8-13.61,9-13.56,11.25s3.79-3.61,12.89-3.7l-1.09,9.43a11.73,11.73,0,0,0,2,8.75c-.33,1.59-.85,3.6-1.42,4.23-1,1.11-4.34,1.84-4.3,3.76s5.78,1.35,7.75-.27a27.31,27.31,0,0,0,3.26-3.54,11.88,11.88,0,0,0,2.34.65,11.71,11.71,0,0,0,8.49-1.8c1.63.39,4.23,1.09,4.95,1.8,1.06,1,1.64,4.42,3.56,4.47S67.82,71.62,66.29,69.59Z" transform="translate(0 -1.23)"/><path class="cls-4" d="M33.26,24l-.15-3.78,16-.47a.91.91,0,0,1,.92.67,2.51,2.51,0,0,0,2.58,2.1,3.08,3.08,0,0,0,2.77-2.39.89.89,0,0,1,.88-.62L71,19.82l-.19,2.86-1.73.07-.54,3.88a6.65,6.65,0,0,1-6.32,5.74l-1.7.07a6.65,6.65,0,0,1-6.64-4.75l-.06-.2A1.79,1.79,0,0,0,52,26.22h0a1.79,1.79,0,0,0-1.66,1.34l-.08.33a6.66,6.66,0,0,1-6,5L43,33a6.64,6.64,0,0,1-7-5.29l-.81-3.93Z" transform="translate(0 -1.23)"/><path class="cls-5" d="M48.7,21.3l-12.36.49,0,.25,1.1,5.32a5.13,5.13,0,0,0,5.24,4.11h.16l1.33-.1a5.12,5.12,0,0,0,4.6-3.78A15.47,15.47,0,0,0,48.7,21.3Z" transform="translate(0 -1.23)"/><path class="cls-5" d="M55.78,21.75c-.19.47-1,3.48-.61,5l.1.28.06.2a5.12,5.12,0,0,0,5.13,3.67l1.69-.07a5.15,5.15,0,0,0,4.9-4.44l.7-5.13Z" transform="translate(0 -1.23)"/></g><line class="cls-6" y1="38.76" x2="103.94" y2="38.76"/></g></g></svg>