<svg xmlns="http://www.w3.org/2000/svg" viewBox="0 0 32.78 27.49"><defs><style>.cls-1{fill:#01152f;}</style></defs><g id="Layer_2" data-name="Layer 2"><g id="Layer_1-2" data-name="Layer 1"><path class="cls-1" d="M12.36,25.35v.1c0,.32,0,.35.34.3a1.76,1.76,0,0,0,1-.52l3.22-3.11.44-.43a.22.22,0,0,1,.33,0l.57.42L24.91,27a2.49,2.49,0,0,0,1.17.46,1.26,1.26,0,0,0,1-.31,1.92,1.92,0,0,0,.44-.65,5,5,0,0,0,.27-.93c.54-2.53,1.07-5.06,1.61-7.58L31.71,7.09c.33-1.54.66-3.08,1-4.62a3.1,3.1,0,0,0,0-1.32A1.35,1.35,0,0,0,31.63,0,1.58,1.58,0,0,0,31,0a5.08,5.08,0,0,0-.93.31l-8.3,3.2L11.87,7.36l-7.66,3L1.34,11.43a2.88,2.88,0,0,0-1,.66.76.76,0,0,0,.09,1.26,2.53,2.53,0,0,0,.81.39l1.71.53L8.3,16a.65.65,0,0,0,.59-.08c.59-.39,1.19-.76,1.79-1.14l8-5,7.21-4.55a2,2,0,0,1,.66-.26.62.62,0,0,1,.33,0,.24.24,0,0,1,.14.37,1,1,0,0,1-.22.25l-2,1.82L22.22,9.68l-3.36,3L16.32,15c-1.06,1-2.11,1.91-3.18,2.86a.86.86,0,0,0-.31.64c0,.65-.08,1.29-.13,1.94s-.09,1.34-.14,2C12.5,23.41,12.43,24.36,12.36,25.35Z"/></g></g></svg>