<svg xmlns="http://www.w3.org/2000/svg" viewBox="0 0 192.48 141.82"><defs><style>.cls-1{fill:#fb79a5;}.cls-2{fill:#ddb567;}.cls-3{fill:#fa538b;}.cls-4{fill:none;}.cls-5{fill:#fff;}.cls-6{fill:#e62f73;}</style></defs><g id="Layer_2" data-name="Layer 2"><g id="Layer_1-2" data-name="Layer 1"><rect class="cls-1" x="17.91" y="72.11" width="69.7" height="69.7" transform="translate(105.53 213.93) rotate(180)"/><rect class="cls-2" x="17.76" y="2.41" width="70.04" height="69.7"/><path class="cls-3" d="M64.35,72.11H87.8c-6.11-39.65-35.13-69.7-70-69.7V29.8C40,29.8,58.67,47.71,64.35,72.11Z"/><rect class="cls-4" x="7.2" width="82.29" height="72.11"/><path class="cls-5" d="M122.81,37.26A34.85,34.85,0,0,0,88,2.41H87.8v69.7H88A34.85,34.85,0,0,0,122.81,37.26Z"/><path class="cls-3" d="M157.81,37.26A34.85,34.85,0,0,0,123,2.41h-.15v69.7H123A34.85,34.85,0,0,0,157.81,37.26Z"/><path class="cls-6" d="M157.47,107a34.86,34.86,0,0,0,34.85,34.86h.16V72.12h-.16A34.86,34.86,0,0,0,157.47,107Z"/><path class="cls-5" d="M52.77,107a34.85,34.85,0,0,0,34.85,34.86h.15V72.12h-.15A34.85,34.85,0,0,0,52.77,107Z"/><path class="cls-6" d="M52.77,107A34.86,34.86,0,0,0,17.91,72.11h-.15v69.69h.15A34.86,34.86,0,0,0,52.77,107Z"/><circle class="cls-2" cx="122.62" cy="106.96" r="34.85"/><circle class="cls-1" cx="8.88" cy="132.93" r="8.88"/></g></g></svg>