<svg xmlns="http://www.w3.org/2000/svg" viewBox="0 0 196.68 255.2"><defs><style>.cls-1{fill:#fff;}.cls-2{fill:#fb79a5;}.cls-3{fill:#fa538b;}.cls-4{fill:#e62f73;}.cls-5{fill:#ddb567;}</style></defs><g id="Layer_2" data-name="Layer 2"><g id="Layer_1-2" data-name="Layer 1"><circle class="cls-1" cx="157.37" cy="137.7" r="29.72"/><circle class="cls-1" cx="119.4" cy="137.7" r="8.25"/><rect class="cls-2" y="20.12" width="78.28" height="78.28" transform="translate(-20.12 98.39) rotate(-90)"/><path class="cls-1" d="M118.06,216a39.14,39.14,0,0,1-39.14,39.14h-.17V176.84h.17A39.14,39.14,0,0,1,118.06,216Z"/><path class="cls-3" d="M118.06,216a39.14,39.14,0,0,1,39.14-39.14h.17v78.28h-.17A39.14,39.14,0,0,1,118.06,216Z"/><path class="cls-4" d="M196.68,137.7a39.14,39.14,0,0,1-39.14,39.14h-.17V98.57h.17A39.13,39.13,0,0,1,196.68,137.7Z"/><path class="cls-1" d="M39.14,59.26A39.14,39.14,0,0,1,78.28,98.39c0,.06,0,.12,0,.18H0v-.18A39.13,39.13,0,0,1,39.14,59.26Z"/><path class="cls-4" d="M39.14,59.26A39.14,39.14,0,0,1,0,20.12V20H78.27c0,.05,0,.11,0,.17A39.15,39.15,0,0,1,39.14,59.26Z"/><rect class="cls-2" y="176.93" width="78.28" height="78.28" transform="translate(-176.93 255.2) rotate(-90)"/><path class="cls-4" d="M39.14,216.07A39.14,39.14,0,0,1,0,176.93v-.17H78.27c0,.05,0,.11,0,.17A39.15,39.15,0,0,1,39.14,216.07Z"/><circle class="cls-2" cx="68.3" cy="9.97" r="9.97"/><circle class="cls-5" cx="157.37" cy="215.98" r="18.97"/><circle class="cls-5" cx="39.14" cy="137.7" r="39.14"/></g></g></svg>