<svg xmlns="http://www.w3.org/2000/svg" viewBox="0 0 224.58 196.8"><defs><style>.cls-1{fill:#c83d7c;}.cls-2{fill:#fa538b;}.cls-3{fill:#fff;}.cls-4{fill:#ddb567;}.cls-5{fill:#01152f;}.cls-6{fill:#7a7a7a;}.cls-7{fill:#a1a1a1;}.cls-8{fill:#13263e;}.cls-8,.cls-9{fill-rule:evenodd;}.cls-9{fill:#445366;}.cls-10{fill:#a14f49;}</style></defs><g id="Layer_2" data-name="Layer 2"><g id="Layer_1-2" data-name="Layer 1"><path class="cls-1" d="M64.92,101.8c2.53,12.26,32.39,31.61,28.75,38.32S53.81,123.44,50,114.71,62.39,89.53,64.92,101.8Z"/><path class="cls-2" d="M63.27,101c-.62-8.39-9-14.18-17.3-15.39l-.27,0a21,21,0,0,0-23.58,16.27L13.91,139a29.09,29.09,0,0,0,20.78,35.49c15.54,4.06,32.76-5,35.49-20.78C73.77,132.83,65.43,130.44,63.27,101Z"/><path class="cls-2" d="M8.33,71.35s-5,4.05-6,1.79,5.44-7.82,5.44-7.82-5.69,1.61-5.39-1.17,8.21-7.84,8.21-7.84-5.92.63-4.85-2.38,9.8-6.4,11.82-13.85L16.28,63.86Z"/><path class="cls-2" d="M22.93,27.24c1.53-3.61-5.64-9.8-3.11-12.56s12.86,0,12.86,0S30,8,32.48,7.28s2.24,2.45,4.38,3.83c0,0,3.71-12.85,7.66-10.91S42.55,7,49.6,7.63,22.93,27.24,22.93,27.24"/><path class="cls-2" d="M83.58,14.1S82,4.33,85.77,4.84s7,15.16,7,15.16,13.75-1.61,14.32,2.26-7.39,5-7.39,5,10.84,7.08,9.85,9.66-4.41,1.66-4.41,1.66,7.63,7.79,6.37,10.53-5.32.15-5.32.15S110.32,54.42,109,57s-7.39-1.74-7.39-1.74Z"/><path class="cls-2" d="M98.59,78.69C98.73,83,103.23,89.4,102.1,93s-5.25,4.16-5.25,4.16,1.13,3-.08,4.57-4.1.44-4.1.44-.39,5.41-3,6.21-6.17-2.09-6.17-2.09-.59,3.75-2.52,3.7-3-2.32-5.75-2.49C75.19,107.48,98.46,74.42,98.59,78.69Z"/><circle class="cls-2" cx="60.65" cy="50.6" r="44.36"/><path class="cls-2" d="M16.72,44.48S-1.58,74,11,85.24,75.06,116.8,90,102.7s5-22.93,10.53-32.61S16.72,44.48,16.72,44.48Z"/><path class="cls-3" d="M51.86,82.36A3.45,3.45,0,1,1,45,81.67c.19-1.9,4.18-7.06,4.18-7.06S52.05,80.46,51.86,82.36Z"/><path class="cls-4" d="M30.11,42.3,20,34.8a3.77,3.77,0,0,0-4.85.3l-3.08,2.95a2.07,2.07,0,0,0,.24,3.2h0a2.07,2.07,0,0,0,2.61-.2l2.23-2.11a.73.73,0,0,1,1,0l10.61,9.21Z"/><path class="cls-4" d="M28.36,49.9l1.79-7.77,36.59,8.4a1.91,1.91,0,0,1,1.49,1.86c0,1.87.55,4.91,4.11,5.72s5.92-1.72,7-3.34A1.92,1.92,0,0,1,81.43,54l29.93,8.79-2,5.71-3.56-.81-3.25,7.61a14,14,0,0,1-16.07,8.2L83,82.69A14.05,14.05,0,0,1,72.09,69.32v-.43a3.79,3.79,0,0,0-2.93-3.6h0A3.78,3.78,0,0,0,65,67.11l-.35.62a14.07,14.07,0,0,1-14.94,6.84L47,74A14.05,14.05,0,0,1,35.65,59.35l.53-8.46Z"/><path class="cls-5" d="M65.08,53.42,39.62,47.58l-.07.52-.71,11.45a10.82,10.82,0,0,0,8.4,11.27l.34.07,2.77.55a10.85,10.85,0,0,0,11.46-5.16C64.77,61.23,65.08,53.42,65.08,53.42Z"/><path class="cls-5" d="M79.26,58.27c-.64.86-3.94,6.54-4,9.91,0,.21,0,.42,0,.63v.43a10.88,10.88,0,0,0,8.43,10.34l3.49.8A10.86,10.86,0,0,0,99.63,74L103.92,64Z"/><path class="cls-2" d="M20.35,160.43s2.07,36.37,9.94,36.37,7.87-29.22,7.87-29.22Z"/><path class="cls-2" d="M64,160.43s-2.07,36.37-9.93,36.37-7.87-29.22-7.87-29.22Z"/><path class="cls-2" d="M25.55,94.14S6.94,92.26,1.11,111C-4.32,128.5,11.82,140.9,14.74,135.2s-3.26-11.65-1.22-18,13.89-3.53,13.89-3.53Z"/><polygon class="cls-6" points="200.16 162.77 224.58 157.45 224.58 117.15 200.16 111.83 200.16 104.28 167.7 104.28 167.7 170.71 200.16 170.71 200.16 162.77"/><rect class="cls-7" x="118.56" y="104.28" width="56.88" height="66.44"/><rect class="cls-5" x="123.5" y="108.75" width="46.99" height="57.49"/><polygon class="cls-8" points="168.15 108.75 152.62 108.75 123.5 166.24 139.04 166.24 168.15 108.75"/><rect class="cls-6" x="152.73" y="175.41" width="70.41" height="21.39"/><rect class="cls-7" x="115.14" y="175.41" width="70.41" height="21.39"/><path class="cls-9" d="M132.72,125.66h3.75v3.75h-3.75Z"/><path class="cls-9" d="M136.47,121.9h3.76v3.76h-3.76Z"/><path class="cls-9" d="M129,121.9h3.76v3.76H129Z"/><path class="cls-9" d="M129,129.41h3.76v3.76H129Z"/><path class="cls-9" d="M136.47,129.41h3.76v3.76h-3.76Z"/><path class="cls-9" d="M155.25,125.66H159v3.75h-3.76Z"/><path class="cls-9" d="M159,121.9h3.75v3.76H159Z"/><path class="cls-9" d="M151.5,121.9h3.75v3.76H151.5Z"/><path class="cls-9" d="M151.5,129.41h3.75v3.76H151.5Z"/><path class="cls-9" d="M159,129.41h3.75v3.76H159Z"/><path class="cls-9" d="M132.72,140.68H159v3.76H132.72Z"/><path class="cls-9" d="M147.74,144.44h3.76V152h-3.76Z"/><path class="cls-9" d="M155.25,144.44H159V152h-3.76Z"/><path class="cls-9" d="M151.5,152h3.75v3.75H151.5Z"/><path class="cls-3" d="M134.32,97.75a.92.92,0,0,1-.28,0c-3.35-1.16-4.53-5.29-3.7-8.45s2.94-5.4,5-7.67l0,0c2-2.23,3.9-4.45,4.44-7.07.7-3.36-.94-6.77-2.44-9-.82-1.25-1.78-2.47-2.7-3.64a47.5,47.5,0,0,1-3.37-4.7c-1.28-2.15-3.21-6.38-1.76-10.52a.86.86,0,0,1,1.08-.52.84.84,0,0,1,.51,1.07c-1.23,3.5.48,7.21,1.62,9.1A42.49,42.49,0,0,0,136,60.74c.94,1.2,1.91,2.45,2.77,3.75,2.4,3.65,3.33,7.22,2.69,10.32s-2.65,5.45-4.85,7.86l0,0c-1.93,2.12-3.93,4.31-4.62,7-.65,2.45.25,5.62,2.62,6.44a.84.84,0,0,1-.27,1.64Z"/><path class="cls-3" d="M146.06,97.32a.82.82,0,0,1-.55-.21c-1.85-1.6-1.79-4.41-.77-6.36a14.25,14.25,0,0,1,3.85-4.18l.3-.25a10,10,0,0,0,3.36-4.06c.67-1.94.15-4.35-1.57-7.36l-.74-1.24c-1.24-2.09-2.53-4.24-2.81-6.75-.33-2.92.78-5.72,1.85-8.11l.31-.69a19.59,19.59,0,0,0,2.1-6.55c.14-2.15-.71-4.88-2.92-5.8a.86.86,0,0,1-.45-1.11.87.87,0,0,1,1.11-.45c3,1.25,4.12,4.75,3.94,7.47a21.07,21.07,0,0,1-2.25,7.13l-.31.69c-1,2.19-2,4.73-1.71,7.23.24,2.15,1.38,4.06,2.59,6.07l.75,1.28c2,3.45,2.54,6.31,1.7,8.73A11.52,11.52,0,0,1,150,87.61l-.31.25a13.08,13.08,0,0,0-3.43,3.67c-.69,1.33-.8,3.29.38,4.31A.85.85,0,0,1,146.7,97,.87.87,0,0,1,146.06,97.32Z"/><path class="cls-3" d="M164,96.28a.84.84,0,0,1-.35-1.6c2.44-1.12,3.26-4.35,2.8-6.82-.51-2.72-2.19-5.16-3.82-7.52l-.12-.17c-1.86-2.7-3.57-5.38-3.94-8.5s1.12-7.16,4.61-8.21a.84.84,0,0,1,1,.56.85.85,0,0,1-.56,1c-2.53.76-3.72,3.85-3.42,6.4.32,2.74,1.9,5.23,3.64,7.75l.12.17c1.73,2.5,3.52,5.08,4.09,8.16s-.5,7.17-3.76,8.66A.83.83,0,0,1,164,96.28Z"/><rect class="cls-5" x="125.74" y="181.63" width="52.11" height="3.02"/><rect class="cls-5" x="118.56" y="180.93" width="4.45" height="4.45"/><rect class="cls-5" x="118.56" y="188.78" width="4.45" height="4.45"/><polygon class="cls-10" points="79.81 135.61 84.82 129.03 100.89 150.82 108.77 154.52 124.05 168.19 129.45 177.88 127.05 179.18 121.87 171.95 104.65 159.37 94.39 154.32 79.81 135.61"/><polygon class="cls-10" points="107.45 155.77 117.26 157.57 121.89 156.39 127.29 157.83 126.38 159.19 121.83 158.33 118.47 159.91 111.54 160.06 107.45 155.77"/></g></g></svg>