<svg xmlns="http://www.w3.org/2000/svg" viewBox="0 0 31.96 24.76"><defs><style>.cls-1{fill:#01152f;}</style></defs><g id="Layer_2" data-name="Layer 2"><g id="Layer_1-2" data-name="Layer 1"><path class="cls-1" d="M32,17.75c0-.45,0-.91,0-1.38,0-.68-.1-1.35-.18-2a25.88,25.88,0,0,0-.58-3.14,27,27,0,0,0-.84-2.78c-.32-.88-.68-1.73-1.08-2.57-.27-.56-.56-1.11-.87-1.66s-.8-1.37-1.24-2A.35.35,0,0,0,27,2c-.49-.23-1-.44-1.5-.64A24.43,24.43,0,0,0,22,.3C21.54.19,21.08.09,20.62,0c-.13,0-.15,0-.21.1s-.09.18-.14.27c-.2.4-.4.82-.58,1.24-.05.12-.06.12-.19.1-.46-.06-.92-.12-1.38-.16s-1-.07-1.49-.08-1.25,0-1.87,0c-.39,0-.79.05-1.18.09s-.77.08-1.15.14c-.1,0-.11,0-.16-.1l0-.06c-.22-.5-.45-1-.71-1.46C11.47,0,11.45,0,11.32,0L10.86.1A26.51,26.51,0,0,0,5.1,2a.79.79,0,0,0-.36.32c-.59.9-1.13,1.83-1.63,2.78A30.51,30.51,0,0,0,1.82,7.91a28.87,28.87,0,0,0-1,3,26.44,26.44,0,0,0-.66,3.53Q0,15.68,0,16.9c0,.67,0,1.34,0,2S.08,20,.12,20.5a.27.27,0,0,0,.12.21c.31.22.62.45.94.66A26.31,26.31,0,0,0,4.9,23.5a26,26,0,0,0,3.17,1.23c.14.05.14.05.23-.08.32-.45.63-.92.91-1.4s.46-.79.66-1.2c.05-.1.05-.12-.06-.16-.4-.16-.79-.33-1.18-.52s-.88-.45-1.31-.7c-.1-.06-.1-.08,0-.16s.3-.23.44-.36a.21.21,0,0,1,.26,0c.6.27,1.2.52,1.82.73a19.22,19.22,0,0,0,3.81.91,18.45,18.45,0,0,0,2,.14,17.88,17.88,0,0,0,1.94-.06q.89-.07,1.77-.24a18.45,18.45,0,0,0,4-1.2l.66-.3c.06,0,.11,0,.17,0l.53.42c.07.06.07.08,0,.13l-.08.05c-.41.24-.82.46-1.24.66s-.79.36-1.19.52c-.11,0-.12.06-.07.17s.11.2.16.31a22.61,22.61,0,0,0,1.21,2l.23.33a.13.13,0,0,0,.17.05l.06,0a26.2,26.2,0,0,0,4.34-1.82,27.16,27.16,0,0,0,3.43-2.17.39.39,0,0,0,.17-.31c0-.26,0-.52.05-.78C31.93,19,32,18.4,32,17.75ZM7.78,13.6a3.49,3.49,0,0,1,.75-2.2,2.68,2.68,0,0,1,2.15-1.08,2.57,2.57,0,0,1,1.83.76,3.31,3.31,0,0,1,1,2.26,3.64,3.64,0,0,1-.39,1.95,3,3,0,0,1-1.22,1.28,2.51,2.51,0,0,1-1.2.33,2.6,2.6,0,0,1-1.84-.7A3.42,3.42,0,0,1,7.8,14C7.79,13.89,7.78,13.75,7.78,13.6Zm13.51,3.3a2.58,2.58,0,0,1-1.73-.66A3.37,3.37,0,0,1,18.42,14a3.73,3.73,0,0,1,.27-1.81,3,3,0,0,1,1.25-1.48,2.53,2.53,0,0,1,2.78.06,3.06,3.06,0,0,1,1.38,2.12,3.57,3.57,0,0,1-.35,2.44,3,3,0,0,1-1.52,1.41A2.42,2.42,0,0,1,21.29,16.9Z"/></g></g></svg>