<svg id="Layer_1" data-name="Layer 1" xmlns="http://www.w3.org/2000/svg" viewBox="0 0 439.85 500.37"><defs><style>.cls-1{fill:#fa538b;}.cls-2{fill:#ddb567;}.cls-3{fill:#01152f;}</style></defs><path class="cls-1" d="M114.33,189.69a113.36,113.36,0,0,1,225.79,0h53.77a167,167,0,0,0-333.33,0Z"/><path class="cls-2" d="M114.57,201.62c6.05,34,54.2,60.55,112.71,60.55,50,0,92.35-19.32,107.45-46.15l-151.57-14.4H433.7l-40.53,4.11q-.53,2.79-1.3,5.54a4.4,4.4,0,0,1-1.84,1.25c-2.77,1-6.13,1.16-9.08,1.92s-5.69,2.59-4.76,4.44c.76,1.49,3.47,2.22,5.56,3.15s3.71,2.87,1.83,3.95a8,8,0,0,1-3.15.67l-17,1.33a27.38,27.38,0,0,0-7.91,1.4c-2.3.93-3.8,2.79-2.63,4.3,1.92,2.48,8.37,1.9,11.84,3.67,3.23,1.65,2.7,4.9,0,6.87s-6.79,3-10.73,3.91l-8.65,2c-4.28,1-8.72,2.09-11.72,4.18s-3.93,5.49-.81,7.51c1.17.76,2.8,1.25,3.81,2.09,2.12,1.78.67,4.29-1.49,6-.51.42-1.07.83-1.63,1.24-3.36,1.91-7.44,1.61-10.24,1.84l-14.64,1.22a11.23,11.23,0,0,0-3.9.78c-1.07.53-1.5,1.61-.52,2.19a11.05,11.05,0,0,0,2,.63c.65.22,1.21.72.82,1.11-13.92,3.45-29.87,2.14-44.45,4.4a6.19,6.19,0,0,0-2.51.77c-1.27.94-.11,2.36,1.4,3.16s3.44,1.46,4.05,2.6a.79.79,0,0,1,.06.86c-.82,1.11-10.46,2.13-20.16,2.78-1,.17-2.08.29-2.61.41a45.59,45.59,0,0,0-4.43,1.25,4.59,4.59,0,0,0-2.55,1.52,1.73,1.73,0,0,0,.53,1.9,9.64,9.64,0,0,0,4.41,2.64c1.37.43,2.9.68,4.23,1.15s2.49,1.28,2.44,2.21c-.07,1.31-2.37,2.11-4.4,2.59a98.42,98.42,0,0,1-22.55,2.56,15.57,15.57,0,0,1-4.78-.53c-.23-.82,1.56-1.23,2.91-1.42a25.53,25.53,0,0,0,7.07-2c.88-.41,1.76-.94,1.77-1.6s-1.07-1.3-2.09-1.73c-5-2.09-10.83-3-16.23-5-5.19-1.9,6.72-3.78-.12-4.37s-18.81-1.47-19.46-2.36a.79.79,0,0,1,0-.86c.61-1.14,2.55-1.8,4.06-2.6s2.67-2.22,1.4-3.16a6.29,6.29,0,0,0-2.51-.77c-14.59-2.26-30.53-.95-44.45-4.4-.4-.39.16-.89.82-1.11a11.2,11.2,0,0,0,2-.63c1-.58.55-1.66-.52-2.19a11.23,11.23,0,0,0-3.9-.78l-14.64-1.22c-2.79-.23-6.88.07-10.24-1.84-.56-.41-1.11-.82-1.63-1.24-2.15-1.75-3.6-4.26-1.48-6,1-.84,2.63-1.33,3.81-2.09,3.12-2,2.17-5.43-.82-7.51s-7.44-3.17-11.71-4.18l-8.66-2c-3.94-.93-8.06-1.94-10.73-3.91s-3.19-5.22,0-6.87c3.48-1.77,9.93-1.19,11.85-3.67,1.16-1.51-.34-3.37-2.63-4.3a27.45,27.45,0,0,0-7.92-1.4l-17-1.33a8,8,0,0,1-3.16-.67c-1.88-1.08-.25-3,1.84-3.95s4.79-1.66,5.55-3.15c.94-1.85-1.8-3.67-4.76-4.44s-6.31-.94-9.07-1.92a5.71,5.71,0,0,1-2.93-2.76,62.48,62.48,0,0,1-1.55-8.14Z"/><path class="cls-1" d="M254.6,180.87a39.81,39.81,0,0,0-6.91-2.85,15.62,15.62,0,0,0-.35-3,16.16,16.16,0,0,0-.55-1.87,24,24,0,0,0-7-12.3c10.78-3.54,15.88-10.38,15-13.13s-11.37,4.63-22.45,5.64A36.79,36.79,0,0,0,239,149h0c1.19-.83,2.36-.24,3.16-.85s-.17-2.34-.17-2.34,2.38,0,3.21-1.15-.78-3.54-.78-3.54,1.55-.48,1.54-1.51-1.45-1.9-1.45-1.9a3.53,3.53,0,0,0,.79-3.41c-.7-1.84-4.63-3-6.08-4.71a8.33,8.33,0,0,1-2-4.15v0a23,23,0,0,0-2.6-6.67c1-.22,2-.65,1.86-1.44-.33-1.49-3.7-2.25-3.7-2.25s2.51-.26,2.13-1.79-6-2.25-6-2.25,1.7-.73,1.27-2.11-7.19-.75-7.19-.75,2.9-3.06,1.4-4.46-6.6,3.74-6.6,3.74-6.08-5-7.8-3.94c-1.28.76.51,2.88,1.52,3.92a23.24,23.24,0,0,0-15.42,9h0c-3.09,2-2.25-1.88-4.5-1.39s.41,7,.41,7c-1.32.14-2.24-1.23-3-.14s2.5,3,2.5,3-5.14,2.23-5.28,4.18,4.82,2.15,5.37,4.13h0a23.12,23.12,0,0,0,2,7h0c1.6,3.71-.88,7.94-.33,9.52s2.76-.6,2.76-.6-1.59,4.64-.81,5.88,2.59-1.28,2.59-1.28-.85,4.4.32,5c.71.36,1.26-.74,1.57-1.64,1.52,2.11,3.47,3.62,5.94,3.76a29,29,0,0,0,5.94-.5c-9,6.16-21.26,7.38-20.1,10.07s12.1,3.86,23-.69l3.28,11.84a15.17,15.17,0,0,0,6.62,9.53c.38,2.08.74,4.73.36,5.77-.66,1.82-4.31,4.32-3.32,6.61s7.59-1.2,9.15-4.1a33.83,33.83,0,0,0,2.19-5.85A15.17,15.17,0,0,0,245,186.83c2.14-.33,5.61-.75,6.81-.25,1.79.75,4.11,4.5,6.45,3.62S257.43,182.57,254.6,180.87Z"/><path class="cls-2" d="M199.34,137l-6.57.2a2,2,0,0,0-1.89,1.71l-.3,2.21a1.09,1.09,0,0,0,1.14,1.23h0a1.11,1.11,0,0,0,1-.93l.22-1.59a.38.38,0,0,1,.4-.33l7.34.32Z"/><path class="cls-2" d="M201.1,140.68l-1.8-3.77L217,128.44a1,1,0,0,1,1.22.28,2.77,2.77,0,0,0,3.54,1,3.37,3.37,0,0,0,1.76-3.63,1,1,0,0,1,.63-1l15.12-6.14,1,3-1.73.82,1.15,4.18a7.34,7.34,0,0,1-3.92,8.59l-1.69.81a7.36,7.36,0,0,1-8.82-1.92l-.14-.18a2,2,0,0,0-2.38-.52h0a2,2,0,0,0-1.1,2.09l.06.37a7.36,7.36,0,0,1-3.89,7.67l-1.31.67a7.35,7.35,0,0,1-9.41-2.32l-2.54-3.64Z"/><path class="cls-3" d="M217.29,130.16,205,136.06l.14.24,3.44,4.92a5.65,5.65,0,0,0,7.11,1.88l.16-.08,1.31-.68a5.67,5.67,0,0,0,3-5.84A17.14,17.14,0,0,0,217.29,130.16Z"/><path class="cls-3" d="M224.68,127.53c0,.56.52,4,1.57,5.38a2.61,2.61,0,0,1,.23.24l.14.18a5.68,5.68,0,0,0,6.82,1.48l1.69-.8a5.69,5.69,0,0,0,3-6.65l-1.52-5.52Z"/><path class="cls-3" d="M110,437.12a8.86,8.86,0,0,1,4.78,8.23,10.13,10.13,0,0,1-3.32,8q-3.31,2.92-9.64,2.92H86.05V419.12h14.77q6.25,0,9.56,2.7a9.5,9.5,0,0,1,3.29,7.76A8.79,8.79,0,0,1,110,437.12Zm-9.77-8.87H96.67v5l4.09-.05a2.29,2.29,0,0,0,2.29-2.44,2.19,2.19,0,0,0-.85-1.86A3.25,3.25,0,0,0,100.18,428.25Zm.95,18.91a3.16,3.16,0,0,0,2.13-.74,2.6,2.6,0,0,0-1.54-4.52l-5,0v5.31Z"/><path class="cls-3" d="M141.61,456.24l-5.9-11.68h-2.65v11.68H122.43V419.06H137.3a14.53,14.53,0,0,1,10.1,3.59,12.15,12.15,0,0,1,4,9.48,11.65,11.65,0,0,1-5.74,10.25L153,456.24Zm-8.55-27.4v6.9h4a3.6,3.6,0,0,0,2.68-.85,3.27,3.27,0,0,0,1-2.55,3.37,3.37,0,0,0-1-2.58,3.76,3.76,0,0,0-2.68-.92Z"/><path class="cls-3" d="M159.88,419.12H170.5v37.17H159.88Z"/><path class="cls-3" d="M195.46,419.12a17.19,17.19,0,0,1,12.88,5.33,19.55,19.55,0,0,1,0,26.51,17.19,17.19,0,0,1-12.88,5.33h-15.4V419.12Zm0,26.87a6.9,6.9,0,0,0,5.34-2.31,9.55,9.55,0,0,0,0-11.95,6.9,6.9,0,0,0-5.34-2.31h-4.25V446Z"/><path class="cls-3" d="M258.77,434.36v4.41a18,18,0,0,1-5.12,13.17q-5.13,5.21-13.47,5.2-8.7,0-14.23-5.55a20.16,20.16,0,0,1,0-27.72,18.58,18.58,0,0,1,13.81-5.6,19.69,19.69,0,0,1,9.53,2.33,18,18,0,0,1,6.83,6.32l-9,5.15q-2.24-3.39-7.12-3.39a8.59,8.59,0,0,0-6.45,2.55,9,9,0,0,0-2.47,6.58,10.35,10.35,0,0,0,2.28,6.67q2.28,2.83,7.07,2.84,5.52,0,7.38-3.93h-7.91v-9Z"/><path class="cls-3" d="M267,419.12h10.62v37.17H267Z"/><path class="cls-3" d="M307.37,419.12H318v37.17H309.5l-11.69-17v17H287.19V419.12h8.5l11.68,17Z"/><path class="cls-3" d="M364.58,434.36v4.41a18,18,0,0,1-5.13,13.17q-5.13,5.21-13.46,5.2-8.72,0-14.24-5.55a20.16,20.16,0,0,1,0-27.72,18.58,18.58,0,0,1,13.81-5.6,19.75,19.75,0,0,1,9.54,2.33,18,18,0,0,1,6.82,6.32l-9,5.15q-2.24-3.39-7.12-3.39a8.59,8.59,0,0,0-6.45,2.55,9,9,0,0,0-2.47,6.58,10.35,10.35,0,0,0,2.28,6.67c1.53,1.89,3.88,2.84,7.07,2.84q5.52,0,7.38-3.93h-7.91v-9Z"/><path class="cls-3" d="M147.91,365v7.11q0,12.85-8.27,21.24t-21.72,8.4q-14.06,0-23-8.95t-8.91-22.32q0-13.37,8.91-22.4t22.28-9a31.75,31.75,0,0,1,15.37,3.77,28.87,28.87,0,0,1,11,10.19l-14.56,8.31q-3.6-5.47-11.48-5.48a13.84,13.84,0,0,0-10.41,4.11,14.62,14.62,0,0,0-4,10.63,16.63,16.63,0,0,0,3.68,10.75q3.67,4.58,11.39,4.58,8.91,0,11.91-6.34H117.41V365Z"/><path class="cls-3" d="M213.4,392.67a32.71,32.71,0,0,1-45.15,0,31.64,31.64,0,0,1,0-44.63,32.71,32.71,0,0,1,45.15,0,31.64,31.64,0,0,1,0,44.63Zm-33.07-11.91a15.13,15.13,0,1,0-4.15-10.41A14.24,14.24,0,0,0,180.33,380.76Z"/><path class="cls-3" d="M288.11,392.67a32.71,32.71,0,0,1-45.15,0A31.64,31.64,0,0,1,243,348a32.71,32.71,0,0,1,45.15,0,31.64,31.64,0,0,1,0,44.63ZM255,380.76a15.13,15.13,0,1,0-4.15-10.41A14.24,14.24,0,0,0,255,380.76Z"/><path class="cls-3" d="M335.45,340.37A27.76,27.76,0,0,1,356.22,349q8.36,8.61,8.36,21.37t-8.36,21.38a27.76,27.76,0,0,1-20.77,8.61H310.6v-60Zm0,43.35a11.11,11.11,0,0,0,8.61-3.73,15.42,15.42,0,0,0,0-19.27,11.11,11.11,0,0,0-8.61-3.73h-6.86v26.73Z"/></svg>