<svg id="Layer_1" data-name="Layer 1" xmlns="http://www.w3.org/2000/svg" viewBox="0 0 439.85 333.26"><defs><style>.cls-1{fill:#fa538b;}.cls-2{fill:#ddb567;}.cls-3{fill:#01152f;}</style></defs><path class="cls-1" d="M108.81,185a113.36,113.36,0,0,1,225.79,0h53.77A167,167,0,0,0,55,185Z"/><path class="cls-2" d="M109.05,196.89c6,34,54.2,60.55,112.71,60.55,49.95,0,92.35-19.33,107.45-46.16L177.65,196.89H428.18L387.65,201q-.52,2.79-1.3,5.54a4.3,4.3,0,0,1-1.84,1.24c-2.77,1-6.13,1.16-9.08,1.93s-5.69,2.59-4.76,4.43c.76,1.5,3.47,2.23,5.56,3.16s3.71,2.87,1.83,3.95a8,8,0,0,1-3.15.67l-17,1.33a27.72,27.72,0,0,0-7.91,1.39c-2.3.94-3.8,2.8-2.63,4.31,1.92,2.48,8.37,1.89,11.84,3.67,3.23,1.64,2.7,4.89,0,6.86s-6.79,3-10.73,3.92l-8.65,2c-4.28,1-8.72,2.09-11.71,4.17s-3.94,5.5-.82,7.52c1.17.75,2.8,1.25,3.81,2.09,2.12,1.77.67,4.28-1.49,6-.51.42-1.07.83-1.63,1.23-3.36,1.92-7.44,1.62-10.23,1.85l-14.65,1.22a11.23,11.23,0,0,0-3.9.78c-1.07.53-1.5,1.6-.51,2.19a11.51,11.51,0,0,0,2,.63c.65.22,1.21.72.82,1.1-13.92,3.45-29.87,2.15-44.45,4.41a6.19,6.19,0,0,0-2.51.77c-1.27.93-.11,2.35,1.4,3.15s3.44,1.46,4.05,2.61a.79.79,0,0,1,.06.86c-.82,1.11-10.46,2.13-20.16,2.77-1,.18-2.08.29-2.61.42a42.93,42.93,0,0,0-4.43,1.25,4.59,4.59,0,0,0-2.55,1.52c-.33.63,0,1.31.53,1.9a9.64,9.64,0,0,0,4.41,2.64c1.37.43,2.9.67,4.23,1.15S242,299,242,299.91c-.07,1.31-2.37,2.12-4.4,2.6A99,99,0,0,1,215,305.07a16.24,16.24,0,0,1-4.79-.53c-.23-.82,1.56-1.23,2.91-1.42a26.06,26.06,0,0,0,7.08-2c.87-.4,1.75-.93,1.76-1.59s-1.07-1.31-2.09-1.73c-5-2.1-10.83-3-16.23-5-5.19-1.9,6.72-3.78-.12-4.37s-18.81-1.47-19.46-2.36a.79.79,0,0,1,0-.86c.61-1.15,2.55-1.81,4.06-2.61s2.67-2.22,1.4-3.15a6.29,6.29,0,0,0-2.51-.77c-14.59-2.26-30.53-1-44.45-4.41-.4-.38.16-.88.82-1.1a12.09,12.09,0,0,0,2-.63c1-.59.55-1.66-.52-2.19a11.23,11.23,0,0,0-3.9-.78l-14.64-1.22c-2.79-.23-6.88.07-10.24-1.85-.56-.4-1.11-.81-1.63-1.23-2.15-1.76-3.6-4.27-1.48-6,1-.84,2.63-1.34,3.81-2.09,3.12-2,2.17-5.43-.82-7.52s-7.44-3.16-11.71-4.17l-8.66-2c-3.94-.94-8.06-1.94-10.73-3.92s-3.19-5.22,0-6.86c3.48-1.78,9.93-1.19,11.85-3.67,1.16-1.51-.34-3.37-2.63-4.31a27.79,27.79,0,0,0-7.92-1.39l-17-1.33a8,8,0,0,1-3.16-.67c-1.88-1.08-.25-3,1.84-3.95s4.8-1.66,5.55-3.16c.94-1.84-1.8-3.67-4.76-4.43s-6.31-.94-9.07-1.93A5.67,5.67,0,0,1,56.76,205a62.33,62.33,0,0,1-1.55-8.13Z"/><path class="cls-1" d="M249.08,176.14a39,39,0,0,0-6.91-2.85,15.62,15.62,0,0,0-.35-3,16.32,16.32,0,0,0-.55-1.88,24,24,0,0,0-7-12.29c10.78-3.54,15.88-10.38,15-13.13s-11.37,4.62-22.45,5.63a36.77,36.77,0,0,0,6.69-4.33h0c1.19-.84,2.36-.24,3.16-.85s-.17-2.34-.17-2.34,2.38,0,3.21-1.15-.78-3.54-.78-3.54,1.55-.48,1.54-1.51S239,133,239,133a3.53,3.53,0,0,0,.79-3.41c-.7-1.84-4.63-3-6.08-4.71a8.45,8.45,0,0,1-2-4.15s0,0,0,0a23,23,0,0,0-2.6-6.67c1-.23,2-.65,1.86-1.45-.33-1.48-3.7-2.24-3.7-2.24s2.51-.26,2.13-1.8-6-2.24-6-2.24,1.7-.73,1.27-2.11-7.18-.75-7.18-.75,2.89-3.06,1.39-4.46-6.6,3.73-6.6,3.73-6.08-5-7.8-3.93c-1.28.76.51,2.88,1.52,3.91a23.21,23.21,0,0,0-15.42,9h0c-3.09,2.05-2.25-1.88-4.5-1.39s.41,7,.41,7c-1.32.13-2.24-1.23-3-.14s2.5,3,2.5,3-5.14,2.23-5.28,4.18,4.82,2.15,5.37,4.13h0a23.2,23.2,0,0,0,2,7h0c1.59,3.71-.89,7.95-.34,9.53s2.76-.61,2.76-.61-1.59,4.65-.81,5.89,2.59-1.28,2.59-1.28-.85,4.39.32,5c.72.36,1.26-.74,1.57-1.65,1.53,2.11,3.47,3.63,5.94,3.77a29,29,0,0,0,5.94-.5c-9,6.16-21.26,7.38-20.1,10.06s12.1,3.86,23-.68l3.28,11.84a15.17,15.17,0,0,0,6.62,9.53c.38,2.08.74,4.73.36,5.77-.66,1.82-4.31,4.31-3.32,6.61s7.59-1.2,9.15-4.11a33.72,33.72,0,0,0,2.19-5.84,15.17,15.17,0,0,0,12.43-6.65c2.14-.33,5.61-.75,6.81-.25,1.79.74,4.12,4.5,6.45,3.62S251.91,177.83,249.08,176.14Z"/><path class="cls-2" d="M193.82,132.26l-6.57.21a2,2,0,0,0-1.89,1.7l-.3,2.21a1.09,1.09,0,0,0,1.14,1.23h0a1.1,1.1,0,0,0,1-.93l.22-1.59a.38.38,0,0,1,.4-.32l7.34.32Z"/><path class="cls-2" d="M195.58,135.94l-1.8-3.76,17.73-8.48a1,1,0,0,1,1.22.28,2.77,2.77,0,0,0,3.54,1,3.38,3.38,0,0,0,1.76-3.63,1,1,0,0,1,.63-1l15.12-6.14,1.05,3-1.73.83,1.15,4.18a7.35,7.35,0,0,1-3.92,8.59l-1.69.81a7.35,7.35,0,0,1-8.82-1.93l-.14-.17a2,2,0,0,0-2.38-.52h0a2,2,0,0,0-1.1,2.09l.06.37a7.35,7.35,0,0,1-3.89,7.66l-1.31.68a7.35,7.35,0,0,1-9.41-2.33l-2.54-3.64Z"/><path class="cls-3" d="M211.77,125.43l-12.33,5.9.14.23,3.44,4.93a5.67,5.67,0,0,0,7.11,1.88l.16-.08,1.31-.68a5.68,5.68,0,0,0,3-5.85A17.15,17.15,0,0,0,211.77,125.43Z"/><path class="cls-3" d="M219.16,122.8c0,.56.52,4,1.57,5.37a2.73,2.73,0,0,1,.23.25l.14.17a5.69,5.69,0,0,0,6.82,1.49l1.69-.81a5.68,5.68,0,0,0,3-6.64l-1.52-5.52Z"/></svg>