<svg xmlns="http://www.w3.org/2000/svg" viewBox="0 0 53.65 48.33"><defs><style>.cls-1{fill:#fff;}.cls-2{fill:none;stroke:#fff;stroke-miterlimit:10;stroke-width:2px;}</style></defs><g id="Layer_2" data-name="Layer 2"><g id="Layer_1-2" data-name="Layer 1"><path class="cls-1" d="M25.42,38.11a6.22,6.22,0,0,1-3,2.15,13.13,13.13,0,0,1-4.64.78,8.64,8.64,0,0,1-4.62-1.25A8.26,8.26,0,0,1,10,36.27,11.93,11.93,0,0,1,8.87,31V28.25A10.68,10.68,0,0,1,11.19,21a7.88,7.88,0,0,1,6.24-2.66,8.3,8.3,0,0,1,5.5,1.74,7.18,7.18,0,0,1,2.48,4.79H23.54a5.81,5.81,0,0,0-2-3.7,6.43,6.43,0,0,0-4.11-1.25,6,6,0,0,0-4.91,2.2,9.58,9.58,0,0,0-1.8,6.22v2.61a11,11,0,0,0,.85,4.46,6.92,6.92,0,0,0,2.46,3,6.52,6.52,0,0,0,3.69,1.07,10.34,10.34,0,0,0,4.14-.76,4.55,4.55,0,0,0,1.67-1.17V31.82H17.62V30.24h7.8Z"/><path class="cls-1" d="M30.72,40.73V18.62h6.53a8.47,8.47,0,0,1,5.39,1.47,5.19,5.19,0,0,1,1.84,4.32,4.92,4.92,0,0,1-.93,3A5.15,5.15,0,0,1,41,29.21a5.35,5.35,0,0,1,3.1,1.9,5.25,5.25,0,0,1,1.18,3.4,5.76,5.76,0,0,1-1.89,4.58,7.8,7.8,0,0,1-5.26,1.64Zm1.87-12.19h5.1a5.74,5.74,0,0,0,3.62-1.1,3.78,3.78,0,0,0,1.29-3.09,3.72,3.72,0,0,0-1.33-3.14,6.65,6.65,0,0,0-4-1H32.59Zm0,1.58v9h5.6A5.59,5.59,0,0,0,42,37.93a4.26,4.26,0,0,0,1.4-3.39,4.11,4.11,0,0,0-1.34-3.23,5.4,5.4,0,0,0-3.72-1.19Z"/><rect class="cls-2" x="1" y="4.68" width="51.65" height="42.65"/><line class="cls-2" x1="1" y1="13.22" x2="52.65" y2="13.22"/><line class="cls-2" x1="12.35" y1="8.7" x2="12.35"/><line class="cls-2" x1="41.47" y1="8.7" x2="41.47"/></g></g></svg>