<svg xmlns="http://www.w3.org/2000/svg" viewBox="0 0 33.05 24.16"><defs><style>.cls-1{fill:#01152f;}</style></defs><g id="Layer_2" data-name="Layer 2"><g id="Layer_1-2" data-name="Layer 1"><path class="cls-1" d="M16.66,15.93,23.21,0h9.84V.66h-.78A3.4,3.4,0,0,0,30.55,1a1.82,1.82,0,0,0-.71.84,7.39,7.39,0,0,0-.19,2.23V20a8,8,0,0,0,.19,2.31,1.77,1.77,0,0,0,.8.81,3.31,3.31,0,0,0,1.63.35h.78v.66H20.44V23.5h.78a3.38,3.38,0,0,0,1.71-.38,1.7,1.7,0,0,0,.71-.85,7.3,7.3,0,0,0,.2-2.24V2.12l-9.27,22h-.42L4.74,2.28v17a15.07,15.07,0,0,0,.09,2.2,2.54,2.54,0,0,0,1,1.45,4.19,4.19,0,0,0,2.43.56v.66H0V23.5H.25a3.76,3.76,0,0,0,1.5-.26,2.4,2.4,0,0,0,1-.74,3.5,3.5,0,0,0,.55-1.3c0-.13,0-.74,0-1.82V4.1a7.67,7.67,0,0,0-.2-2.29,1.8,1.8,0,0,0-.8-.8A3.3,3.3,0,0,0,.77.66H0V0H9.87Z"/></g></g></svg>