<svg xmlns="http://www.w3.org/2000/svg" viewBox="0 0 32.32 26.31"><defs><style>.cls-1{fill:#01152f;}</style></defs><g id="Layer_2" data-name="Layer 2"><g id="Layer_1-2" data-name="Layer 1"><path class="cls-1" d="M0,23.33a4.38,4.38,0,0,1,.51,0H.69a10.9,10.9,0,0,0,1.4,0,13.19,13.19,0,0,0,3.18-.51,14.36,14.36,0,0,0,2-.77,12.5,12.5,0,0,0,2.35-1.43s.09-.05.11-.1-.05,0-.08,0a5.84,5.84,0,0,1-1.17-.14,6.82,6.82,0,0,1-1.62-.58,7.24,7.24,0,0,1-1.34-.92,6.61,6.61,0,0,1-1.31-1.58,6.29,6.29,0,0,1-.6-1.29.08.08,0,0,1,0,0s0-.06,0,0L4,16a5,5,0,0,0,1.16.06,6.66,6.66,0,0,0,1.33-.19s0,0,0,0a6.65,6.65,0,0,1-4.37-3.22,6.49,6.49,0,0,1-.87-3.39,6.54,6.54,0,0,0,2.94.83A6.69,6.69,0,0,1,1.36,5.35a6.55,6.55,0,0,1,.86-4.14,19,19,0,0,0,6.1,4.92,18.67,18.67,0,0,0,7.57,2,6.12,6.12,0,0,1-.15-1.27,3.53,3.53,0,0,0,0-.46,6.27,6.27,0,0,1,.56-2.48,6.6,6.6,0,0,1,1.15-1.76A6.46,6.46,0,0,1,19.6.61a6.7,6.7,0,0,1,2-.57,7,7,0,0,1,1.12,0,6.52,6.52,0,0,1,2.21.5,6.81,6.81,0,0,1,1.83,1.15,5.08,5.08,0,0,1,.41.39s.07,0,.12,0c.27-.05.53-.12.79-.19a12.68,12.68,0,0,0,2.09-.75,11.54,11.54,0,0,0,1.16-.6s.05,0,.08,0a6.49,6.49,0,0,1-2.81,3.61,8.34,8.34,0,0,0,1.89-.35,11.85,11.85,0,0,0,1.81-.65s0,.06,0,.08a13.88,13.88,0,0,1-1,1.29c-.19.22-.39.44-.6.65a12.35,12.35,0,0,1-1.55,1.33.26.26,0,0,0-.11.25c0,.51,0,1,0,1.52a19.54,19.54,0,0,1-.2,2,21.66,21.66,0,0,1-.61,2.65,20.74,20.74,0,0,1-.9,2.38,20.5,20.5,0,0,1-1.26,2.36,19.41,19.41,0,0,1-1.56,2.16,18.24,18.24,0,0,1-1.41,1.5,17.32,17.32,0,0,1-1.92,1.6,18.1,18.1,0,0,1-1.86,1.17,18.58,18.58,0,0,1-2.45,1.11,20.77,20.77,0,0,1-2,.61c-.62.14-1.24.26-1.87.34-.42.06-.85.1-1.28.13s-.76,0-1.14,0H9.26l-1.09-.09-.82-.1c-.44-.06-.87-.15-1.3-.24a19.76,19.76,0,0,1-2-.56c-.59-.21-1.18-.44-1.75-.7A20.28,20.28,0,0,1,.1,23.42L0,23.35Z"/></g></g></svg>